<?xml version="1.0" encoding="iso-8859-1"?>
<!-- Generator: Adobe Illustrator 19.0.0, SVG Export Plug-In . SVG Version: 6.00 Build 0)  -->
<svg version="1.1" id="Layer_1" xmlns="http://www.w3.org/2000/svg" xmlns:xlink="http://www.w3.org/1999/xlink" x="0px" y="0px"
	 viewBox="0 0 512 512" style="enable-background:new 0 0 512 512;" xml:space="preserve">
<g>
	<g>
		<g>
			<rect x="0" y="429.075" width="95.035" height="15.738"/>
			<polygon points="95.035,83.146 55.072,83.146 55.072,67.187 39.335,67.187 39.335,83.146 0,83.146 0,98.884 95.035,98.884 			"/>
			<rect x="416.965" y="429.075" width="95.035" height="15.738"/>
			<polygon points="472.038,83.146 472.038,67.187 456.3,67.187 456.3,83.146 416.965,83.146 416.965,98.884 512,98.884 512,83.146 
							"/>
			<path d="M416.965,405.478v15.738h94.407v-15.738h-7.866V122.259h7.866v-15.738h-94.407v15.738h7.866v39.333h-22.972v-31.467
				h-15.738v31.467h-39.333v-47.202h-15.738v47.202h-39.333V90.789h-15.738v70.803h-39.333V90.789H220.91v70.803h-39.334v-47.202
				h-15.738v47.202h-39.333v-31.467h-15.738v31.467H86.543v-39.333h7.866v-15.738H0v15.738h7.866v283.218H0v15.738h94.407v-15.738
				h-7.866v-15.73h24.226v47.203h291.092v-47.203h22.972v15.731H416.965z M440.569,122.259h47.201V342.54h-47.201V122.259z
				 M440.569,358.278h47.201v47.199h-47.201V358.278z M70.804,405.478H23.603v-47.199h47.201V405.478z M70.804,342.54H23.603
				V122.259h47.201V342.54z M110.767,374.01H86.542V177.331h24.226V374.01z M165.838,421.213h-39.333v-31.465h39.333V421.213z
				 M165.838,374.01h-39.333V177.331h39.333V374.01z M220.91,421.213h-39.334v-31.465h39.334V421.213z M220.91,374.01h-39.334
				V273.624c5.629,3.776,12.395,5.981,19.667,5.981c7.272,0,14.038-2.206,19.667-5.981V374.01z M201.243,263.867
				c-10.844,0-19.667-8.822-19.667-19.666c0-10.844,8.823-19.667,19.667-19.667c10.844,0,19.667,8.823,19.667,19.667
				C220.91,255.046,212.088,263.867,201.243,263.867z M220.91,214.778c-5.629-3.776-12.395-5.981-19.667-5.981
				s-14.038,2.206-19.667,5.981v-37.447h39.334V214.778z M275.981,421.213h-39.333v-31.465h39.333V421.213z M275.981,374.01h-39.333
				V273.624c5.629,3.776,12.394,5.981,19.666,5.981c7.272,0,14.038-2.206,19.667-5.981V374.01z M256.314,263.867
				c-10.844,0-19.666-8.822-19.666-19.666c0-10.844,8.821-19.667,19.666-19.667c10.844,0,19.667,8.823,19.667,19.667
				C275.981,255.046,267.158,263.867,256.314,263.867z M275.981,214.778c-5.629-3.776-12.395-5.981-19.667-5.981
				c-7.272,0-14.037,2.206-19.666,5.981v-37.447h39.333V214.778z M331.051,421.213h-39.333v-31.465h39.333V421.213z M331.051,374.01
				h-39.333V273.624c5.629,3.776,12.394,5.981,19.666,5.981c7.272,0,14.038-2.206,19.667-5.981V374.01z M311.384,263.867
				c-10.844,0-19.666-8.822-19.666-19.666c0-10.844,8.821-19.667,19.666-19.667c10.844,0,19.667,8.823,19.667,19.667
				C331.051,255.046,322.228,263.867,311.384,263.867z M331.051,214.778c-5.629-3.776-12.395-5.981-19.667-5.981
				c-7.272,0-14.037,2.206-19.666,5.981v-37.447h39.333V214.778z M386.121,421.213h-39.333v-31.465h39.333V421.213z M386.121,374.01
				h-39.333V177.331h39.333V374.01z M401.859,374.01V177.331h22.972V374.01H401.859z"/>
		</g>
	</g>
</g>
<g>
</g>
<g>
</g>
<g>
</g>
<g>
</g>
<g>
</g>
<g>
</g>
<g>
</g>
<g>
</g>
<g>
</g>
<g>
</g>
<g>
</g>
<g>
</g>
<g>
</g>
<g>
</g>
<g>
</g>
</svg>
